<?xml version="1.0" standalone="no"?>
<!DOCTYPE svg PUBLIC "-//W3C//DTD SVG 20010904//EN"
 "http://www.w3.org/TR/2001/REC-SVG-20010904/DTD/svg10.dtd">
<svg version="1.0" xmlns="http://www.w3.org/2000/svg"
 width="512.000000pt" height="512.000000pt" viewBox="0 0 512.000000 512.000000"
 preserveAspectRatio="xMidYMid meet">
<metadata>
Created by potrace 1.14, written by Peter Selinger 2001-2017
</metadata>
<g transform="translate(0.000000,512.000000) scale(0.100000,-0.100000)"
fill="#000000" stroke="none">
<path d="M0 2560 l0 -2560 2560 0 2560 0 0 2560 0 2560 -2560 0 -2560 0 0
-2560z m1508 1995 c1 -11 -6 -25 -17 -32 -18 -11 -22 -10 -31 8 -9 15 -8 24 1
35 16 20 43 14 47 -11z m2598 -2 c1 -12 -3 -20 -7 -17 -5 3 -9 0 -9 -5 0 -15
-27 -14 -33 2 -2 6 -2 20 1 30 7 27 47 18 48 -10z m-1471 -489 c118 -20 245
-63 368 -126 117 -60 204 -123 302 -219 l70 -69 90 31 c171 58 356 101 570
134 53 8 272 8 332 0 162 -22 292 -103 345 -215 30 -62 32 -229 4 -310 -145
-429 -558 -891 -1241 -1391 -189 -138 -472 -315 -720 -449 -75 -41 -353 -180
-359 -180 -2 0 -37 -15 -78 -33 -62 -28 -136 -59 -233 -97 -243 -95 -464 -153
-740 -195 -53 -8 -272 -8 -332 0 -163 22 -293 103 -345 215 -29 62 -31 230 -4
310 89 263 242 488 545 802 l65 67 -31 78 c-154 393 -97 833 150 1163 190 254
488 434 802 484 165 26 281 26 440 0z m-2197 -1012 c2 -7 -6 -12 -17 -12 -21
0 -27 11 -14 24 9 9 26 2 31 -12z m4156 -1223 c-19 -21 -34 -17 -34 10 0 26
10 32 32 20 19 -10 19 -12 2 -30z m-614 -1213 c0 -3 -4 -8 -10 -11 -5 -3 -10
-1 -10 4 0 6 5 11 10 11 6 0 10 -2 10 -4z m-1344 -119 c1 -9 -2 -17 -7 -17 -6
0 -7 -4 -4 -10 3 -5 -3 -10 -13 -10 -27 0 -37 29 -15 46 22 16 35 13 39 -9z
m-2220 -42 c18 -18 10 -35 -17 -35 -19 0 -27 29 -12 43 9 10 13 9 29 -8z"/>
<path d="M2937 2628 c-11 -9 -23 -52 -37 -136 -11 -68 -20 -128 -20 -133 0
-20 -18 2 -58 68 -63 104 -57 98 -80 82 -20 -14 -17 -20 90 -194 60 -99 113
-184 118 -188 4 -5 17 -4 28 2 20 11 19 14 -33 99 -30 48 -50 88 -45 90 6 2
66 -15 135 -38 121 -40 127 -41 151 -25 14 9 24 18 22 20 -2 2 -64 23 -138 45
-74 23 -138 44 -141 46 -6 3 7 83 36 237 8 39 0 46 -28 25z"/>
<path d="M2603 2423 c-7 -2 -13 -9 -13 -15 0 -6 34 -66 76 -134 86 -141 101
-181 82 -221 -18 -37 -74 -73 -114 -73 -49 0 -85 37 -172 180 -66 108 -81 126
-95 118 -9 -5 -17 -14 -17 -20 0 -19 147 -252 177 -279 60 -57 109 -63 182
-24 69 38 95 81 89 150 -4 47 -16 74 -85 187 -44 73 -85 133 -89 134 -5 1 -15
0 -21 -3z"/>
</g>
</svg>
